# xmcd CD database file
#
# Track frame offsets:
#	150
#	44469
#	58477
#	86324
#	112294
#	129469
#	160588
#	187857
#
# Disc length: 2862 seconds
#
# Revision: 0
# Processed by: cddbd v1.5.2PL0 Copyright (c) Steve Scherf et al.
# Submitted via: ACXtractor (MTCDDB.DLL V2003.12.21)
#
DISCID=680b2c08
DTITLE=Hugo Race and Michelangelo Russo - John Lee Hooker's World Today
DYEAR=2017
DGENRE=Blues
TTITLE0=Hobo Blues
TTITLE1=Love Blues
TTITLE2=Serves You Right To Suffer
TTITLE3=Decoration Day
TTITLE4=The World Today
TTITLE5=The Motor City's Burning
TTITLE6=Country Boy
TTITLE7=When My First Wife Left Me
EXTD=ID3G:   0 YEAR: 2017
EXTT0=
EXTT1=
EXTT2=
EXTT3=
EXTT4=
EXTT5=
EXTT6=
EXTT7=
PLAYORDER=
